<svg version="1.0" xmlns="http://www.w3.org/2000/svg" viewBox="0 0 860.000000 900.000000">

<g transform="translate(0.000000,900.000000) scale(0.100000,-0.100000)"
fill="#000000" stroke="none">
<path d="M3960 8585 c-980 -98 -1814 -489 -2490 -1165 -97 -96 -224 -236 -284
-310 -698 -875 -999 -1967 -846 -3071 104 -751 406 -1423 909 -2024 96 -116
360 -379 476 -476 519 -435 1130 -729 1780 -858 699 -139 1425 -92 2085 134
1195 410 2114 1343 2509 2548 242 739 264 1485 65 2252 -151 587 -436 1129
-835 1590 -114 132 -367 379 -499 486 -567 464 -1232 760 -1940 863 -254 37
-717 53 -930 31z m690 -506 c474 -34 1004 -209 1448 -478 260 -157 449 -306
672 -530 284 -284 480 -558 661 -921 414 -829 480 -1773 188 -2653 -137 -413
-387 -851 -680 -1192 -86 -100 -206 -221 -213 -214 -2 2 -20 51 -41 109 -87
245 -208 470 -362 673 -108 143 -400 433 -544 540 -436 325 -958 496 -1514
497 -561 1 -1111 -191 -1575 -548 -117 -90 -370 -347 -459 -465 -140 -188
-262 -405 -350 -627 -23 -58 -46 -112 -51 -120 -9 -12 -26 1 -96 74 -520 539
-862 1314 -925 2091 -15 185 -6 575 16 735 105 762 435 1440 965 1984 395 406
869 707 1385 881 219 74 552 146 801 175 89 10 470 4 674 -11z"/>
<path d="M3965 7285 c-469 -109 -833 -394 -1035 -810 -104 -215 -143 -389
-143 -650 0 -202 16 -305 74 -480 148 -443 502 -792 953 -940 165 -54 195 -57
496 -53 l275 4 123 42 c528 178 887 567 1019 1102 24 95 26 124 27 305 0 234
-14 327 -73 493 -87 244 -190 412 -351 572 -123 123 -238 207 -390 285 -224
114 -413 156 -708 154 -138 0 -184 -4 -267 -24z"/>
</g>
</svg>
