<?xml version="1.0" encoding="utf-8"?><!-- Uploaded to: SVG Repo, www.svgrepo.com, Generator: SVG Repo Mixer Tools -->
<svg width="800px" height="800px" viewBox="0 0 24 24" fill="none" xmlns="http://www.w3.org/2000/svg">
<path fill-rule="evenodd" clip-rule="evenodd" d="M17 6.5C17 9.53757 14.7614 12 12 12C9.23858 12 7 9.53757 7 6.5C7 3.46243 9.23858 1 12 1C14.7614 1 17 3.46243 17 6.5ZM9 6.5C9 8.32254 10.3431 9.8 12 9.8C13.6569 9.8 15 8.32254 15 6.5C15 4.67746 13.6569 3.2 12 3.2C10.3431 3.2 9 4.67746 9 6.5Z" fill="#dc3545"/>
<path d="M11.6759 14.9952C10.7868 14.9679 10.1945 14.8277 9.72609 14.6447C9.26355 14.464 8.89822 14.237 8.41685 13.9378C8.32296 13.8795 8.22448 13.8183 8.12019 13.7543C7.07587 13.1132 5.73464 13.2622 4.86415 14.1419C4.48443 14.5256 4.04036 15.0219 3.6849 15.5626C3.34603 16.0781 3 16.7638 3 17.5V20.0003C3 21.6574 4.34334 23 6 23H13.101C12.5151 22.4259 12.0297 21.7496 11.6736 21H6C5.44752 21 5 20.5524 5 20.0003V17.5C5 17.3549 5.08549 17.073 5.35613 16.6613C5.61017 16.2748 5.95358 15.8844 6.28579 15.5487C6.49412 15.3381 6.81106 15.2974 7.07389 15.4588C7.15661 15.5095 7.24087 15.5621 7.32694 15.6159C7.80938 15.9171 8.34918 16.254 8.99836 16.5076C9.58761 16.7378 10.2519 16.8974 11.0761 16.9645C11.1791 16.2695 11.3843 15.6078 11.6759 14.9952Z" fill="#dc3545"/>
<path fill-rule="evenodd" clip-rule="evenodd" d="M18 24C21.3137 24 24 21.3137 24 18C24 14.6863 21.3137 12 18 12C14.6863 12 12 14.6863 12 18C12 21.3137 14.6863 24 18 24ZM18 22.0181C15.7809 22.0181 13.9819 20.2191 13.9819 18C13.9819 17.2532 14.1857 16.5539 14.5406 15.9548L20.0452 21.4594C19.4461 21.8143 18.7468 22.0181 18 22.0181ZM21.4594 20.0452C21.8143 19.4461 22.0181 18.7468 22.0181 18C22.0181 15.7809 20.2191 13.9819 18 13.9819C17.2532 13.9819 16.5539 14.1857 15.9548 14.5406L21.4594 20.0452Z" fill="#dc3545"/>
</svg>